<?xml version="1.0" encoding="UTF-8"?>
<svg width="48" height="48" viewBox="0 0 48 48" fill="none" xmlns="http://www.w3.org/2000/svg">
  <rect width="48" height="48" rx="8" fill="#FFFFFF"/>
  <path d="M24 12c3.3 0 6.1 1.2 8.2 3.1l6-6C34.4 6 29.7 4 24 4 14.8 4 6.9 9.5 3.3 17.9l7.2 5.6C12.6 16 17.8 12 24 12z" fill="#EA4335"/>
  <path d="M46.5 24.5c0-1.6-.1-3.1-.4-4.5H24v8.5h12.7c-.5 2.8-2 5.1-4.3 6.7l6.8 5.3C44.6 37.5 46.5 31.6 46.5 24.5z" fill="#4285F4"/>
  <path d="M10.5 29.2A14.8 14.8 0 0 1 9 24.5c0-1.6.3-3.2.8-4.7L3.3 14.2A23.9 23.9 0 0 0 0 24.5c0 3.9.9 7.6 2.6 10.9l7.9-6.2z" fill="#FBBC05"/>
  <path d="M24 44c6.8 0 12.5-2.3 16.7-6.2l-7.9-6.2c-2 1.4-4.6 2.2-7.8 2.2-6.2 0-11.4-4-13.3-9.6L3.3 33.1C6.9 41.5 14.8 44 24 44z" fill="#34A853"/>
</svg>
